<svg width="1186" height="1359" xmlns="http://www.w3.org/2000/svg" xmlns:xlink="http://www.w3.org/1999/xlink" overflow="hidden"><defs><clipPath id="clip0"><rect x="769" y="24" width="1186" height="1359"/></clipPath></defs><g clip-path="url(#clip0)" transform="translate(-769 -24)"><path d="M1667.5 404.667C1667.5 397.395 1673.4 391.5 1680.67 391.5L1937.33 391.5C1944.6 391.5 1950.5 397.395 1950.5 404.667L1950.5 457.333C1950.5 464.605 1944.6 470.5 1937.33 470.5L1680.67 470.5C1673.4 470.5 1667.5 464.605 1667.5 457.333Z" stroke="#707070" stroke-width="3.4375" stroke-miterlimit="8" fill="#F7F7F7" fill-rule="evenodd"/><text font-family="Microsoft YaHei,Microsoft YaHei_MSFontService,sans-serif" font-weight="400" font-size="28" transform="matrix(1 0 0 1 1780.79 424)">编写<tspan font-family="Arial,Arial_MSFontService,sans-serif" font-size="28" x="-25.5062" y="34">IDL</tspan><tspan font-size="28" x="25.4834" y="34">文件</tspan></text><path d="M1667.5 695.833C1667.5 688.469 1673.47 682.5 1680.83 682.5L1937.17 682.5C1944.53 682.5 1950.5 688.469 1950.5 695.833L1950.5 749.166C1950.5 756.53 1944.53 762.5 1937.17 762.5L1680.83 762.5C1673.47 762.5 1667.5 756.53 1667.5 749.166Z" stroke="#707070" stroke-width="3.4375" stroke-miterlimit="8" fill="#F7F7F7" fill-rule="evenodd"/><text font-family="Microsoft YaHei,Microsoft YaHei_MSFontService,sans-serif" font-weight="400" font-size="28" transform="matrix(1 0 0 1 1780.78 715)">实现<tspan font-size="28" x="-27.5" y="33">业务逻辑</tspan></text><path d="M1667.5 987.834C1667.5 980.47 1673.47 974.5 1680.83 974.5L1937.17 974.5C1944.53 974.5 1950.5 980.47 1950.5 987.834L1950.5 1041.17C1950.5 1048.53 1944.53 1054.5 1937.17 1054.5L1680.83 1054.5C1673.47 1054.5 1667.5 1048.53 1667.5 1041.17Z" stroke="#707070" stroke-width="3.4375" stroke-miterlimit="8" fill="#F7F7F7" fill-rule="evenodd"/><text font-family="Microsoft YaHei,Microsoft YaHei_MSFontService,sans-serif" font-weight="400" font-size="28" transform="matrix(1 0 0 1 1780.78 1007)">进行<tspan font-size="28" x="-41.25" y="33">端到端测试</tspan></text><rect x="1667.5" y="536.5" width="283" height="79.9998" stroke="#2787D9" stroke-width="3.4375" stroke-miterlimit="8" fill="#F0FAFF"/><text font-family="Arial,Arial_MSFontService,sans-serif" font-weight="400" font-size="28" transform="matrix(1 0 0 1 1755.28 587)">IDL<tspan font-family="Microsoft YaHei,Microsoft YaHei_MSFontService,sans-serif" font-size="28" x="50.9896" y="0">编译</tspan></text><rect x="1667.5" y="828.5" width="283" height="80.0001" stroke="#FFC000" stroke-width="3.4375" stroke-miterlimit="8" fill="#FFFBF0"/><text font-family="Microsoft YaHei,Microsoft YaHei_MSFontService,sans-serif" font-weight="400" font-size="28" transform="matrix(1 0 0 1 1753.28 877)">项目构建</text><path d="M1810.22 470.5 1810.22 513.512 1806.78 513.512 1806.78 470.5ZM1817.67 508.928 1808.5 536.428 1799.33 508.928Z" fill="#2787D9"/><path d="M1810.22 616.5 1810.22 659.511 1806.78 659.511 1806.78 616.5ZM1817.67 654.928 1808.5 682.428 1799.33 654.928Z" fill="#2787D9"/><path d="M1810.22 762.5 1810.22 805.511 1806.78 805.511 1806.78 762.5ZM1817.67 800.928 1808.5 828.428 1799.33 800.928Z" fill="#2787D9"/><path d="M1810.22 908.5 1810.22 951.512 1806.78 951.512 1806.78 908.5ZM1817.67 946.928 1808.5 974.428 1799.33 946.928Z" fill="#2787D9"/><text font-family="Microsoft YaHei,Microsoft YaHei_MSFontService,sans-serif" font-weight="400" font-size="37" transform="matrix(1 0 0 1 1716.72 372)">用户工作流</text><rect x="770.5" y="1220.5" width="838" height="161" stroke="#707070" stroke-width="3.4375" stroke-miterlimit="8" fill="#F7F7F7"/><text font-family="Microsoft YaHei,Microsoft YaHei_MSFontService,sans-serif" font-weight="400" font-size="37" transform="matrix(1 0 0 1 1115.69 1271)">外部依赖</text><rect x="784.5" y="1291.5" width="388" height="68.0001" stroke="#17A98D" stroke-width="3.4375" stroke-miterlimit="8" fill="#F6FCF5"/><text font-family="Arial,Arial_MSFontService,sans-serif" font-weight="400" font-size="28" transform="matrix(1 0 0 1 817.698 1336)">a<tspan font-size="28" x="15.4688" y="0">rkcompiler</tspan><tspan font-size="28" x="143.229" y="0">_runtime_cor</tspan><tspan font-size="28" x="304.792" y="0">e</tspan></text><rect x="1202.5" y="1291.5" width="383" height="68.0001" stroke="#17A98D" stroke-width="3.4375" stroke-miterlimit="8" fill="#F6FCF5"/><text font-family="Arial,Arial_MSFontService,sans-serif" font-weight="400" font-size="28" transform="matrix(1 0 0 1 1241.61 1336)">arkcompiler_ets_runtime</text><rect x="770.5" y="25.4999" width="838" height="742" stroke="#707070" stroke-width="3.4375" stroke-miterlimit="8" fill="#F7F7F7"/><rect x="793.5" y="446.5" width="792" height="311" stroke="#2787D9" stroke-width="3.4375" stroke-miterlimit="8" fill="#F0FAFF"/><rect x="818.5" y="507.5" width="354" height="99" stroke="#2787D9" stroke-width="3.4375" stroke-miterlimit="8" fill="#FFFFFF"/><text font-family="Arial,Arial_MSFontService,sans-serif" font-weight="400" font-size="28" transform="matrix(1 0 0 1 854.771 551)">C++<tspan font-family="Microsoft YaHei,Microsoft YaHei_MSFontService,sans-serif" font-size="28" x="60.1563" y="0">投影和</tspan><tspan font-family="Microsoft YaHei,Microsoft YaHei_MSFontService,sans-serif" font-size="28" x="142.656" y="0">模板代码生</tspan><tspan font-family="Microsoft YaHei,Microsoft YaHei_MSFontService,sans-serif" font-size="28" x="98.8396" y="32">成后端</tspan></text><rect x="1202.5" y="507.5" width="358" height="99" stroke="#2787D9" stroke-width="3.4375" stroke-miterlimit="8" fill="#FFFFFF"/><text font-family="Arial,Arial_MSFontService,sans-serif" font-weight="400" font-size="28" transform="matrix(1 0 0 1 1313.65 550)">C ABI<tspan font-family="Microsoft YaHei,Microsoft YaHei_MSFontService,sans-serif" font-size="28" x="79.6355" y="0">代码</tspan><tspan font-family="Microsoft YaHei,Microsoft YaHei_MSFontService,sans-serif" font-size="28" x="12.3292" y="30">生成后端</tspan></text><rect x="818.5" y="636.5" width="354" height="102" stroke="#2787D9" stroke-width="3.4375" stroke-miterlimit="8" fill="#FFFFFF"/><text font-family="Arial,Arial_MSFontService,sans-serif" font-weight="400" font-size="28" transform="matrix(1 0 0 1 912.922 681)">ANI<tspan font-family="Microsoft YaHei,Microsoft YaHei_MSFontService,sans-serif" font-size="28" x="53.8542" y="0">桥接代码</tspan><tspan font-family="Microsoft YaHei,Microsoft YaHei_MSFontService,sans-serif" font-size="28" x="26.9271" y="30">生成后端</tspan></text><rect x="1206.5" y="636.5" width="354" height="102" stroke="#2787D9" stroke-width="3.4375" stroke-miterlimit="8" fill="#FFFFFF"/><text font-family="Arial,Arial_MSFontService,sans-serif" font-weight="400" font-size="28" transform="matrix(1 0 0 1 1291.61 681)">NAPI<tspan font-family="Microsoft YaHei,Microsoft YaHei_MSFontService,sans-serif" font-size="28" x="72.1875" y="0">桥接代码</tspan><tspan font-family="Microsoft YaHei,Microsoft YaHei_MSFontService,sans-serif" font-size="28" x="36.0938" y="30">生成后端</tspan><tspan font-family="Microsoft YaHei,Microsoft YaHei_MSFontService,sans-serif" font-size="37" x="-194.26" y="-194">编译器后端</tspan></text><rect x="793.5" y="275.5" width="792" height="151" stroke="#2787D9" stroke-width="3.4375" stroke-miterlimit="8" fill="#F0FAFF"/><rect x="818.5" y="337.5" width="354" height="69.0001" stroke="#2787D9" stroke-width="3.4375" stroke-miterlimit="8" fill="#FFFFFF"/><text font-family="Microsoft YaHei,Microsoft YaHei_MSFontService,sans-serif" font-weight="400" font-size="28" transform="matrix(1 0 0 1 940.093 381)">中间表示</text><rect x="1210.5" y="337.5" width="350" height="69.0001" stroke="#2787D9" stroke-width="3.4375" stroke-miterlimit="8" fill="#FFFFFF"/><text font-family="Microsoft YaHei,Microsoft YaHei_MSFontService,sans-serif" font-weight="400" font-size="28" transform="matrix(1 0 0 1 1329.84 381)">语义分析<tspan font-size="37" x="-232.48" y="-64">编译器核心</tspan></text><rect x="793.5" y="95.5001" width="792" height="162" stroke="#2787D9" stroke-width="3.4375" stroke-miterlimit="8" fill="#F0FAFF"/><rect x="818.5" y="169.5" width="354" height="68.0001" stroke="#2787D9" stroke-width="3.4375" stroke-miterlimit="8" fill="#FFFFFF"/><text font-family="Microsoft YaHei,Microsoft YaHei_MSFontService,sans-serif" font-weight="400" font-size="28" transform="matrix(1 0 0 1 940.093 212)">中间表示</text><rect x="1210.5" y="169.5" width="350" height="68.0001" stroke="#2787D9" stroke-width="3.4375" stroke-miterlimit="8" fill="#FFFFFF"/><text font-family="Microsoft YaHei,Microsoft YaHei_MSFontService,sans-serif" font-weight="400" font-size="28" transform="matrix(1 0 0 1 1329.84 212)">语义分析<tspan font-size="37" x="-242.644" y="-64">编译器前端</tspan><tspan font-family="Arial,Arial_MSFontService,sans-serif" font-size="37" x="-258.112" y="-135">IDL</tspan><tspan font-size="37" x="-190.508" y="-135">编译组件</tspan></text><rect x="770.5" y="787.5" width="838" height="412" stroke="#707070" stroke-width="3.4375" stroke-miterlimit="8" fill="#F7F7F7"/><rect x="793.5" y="857.5" width="792" height="148" stroke="#FFC000" stroke-width="3.4375" stroke-miterlimit="8" fill="#FFFBF0"/><rect x="818.5" y="918.5" width="354" height="68.0001" stroke="#FFC000" stroke-width="3.4375" stroke-miterlimit="8" fill="#FFFFFF"/><text font-family="Arial,Arial_MSFontService,sans-serif" font-weight="400" font-size="28" transform="matrix(1 0 0 1 942.714 963)">GN<tspan font-family="Microsoft YaHei,Microsoft YaHei_MSFontService,sans-serif" font-size="28" x="49.2708" y="0">模板</tspan></text><rect x="1206.5" y="918.5" width="354" height="68.0001" stroke="#FFC000" stroke-width="3.4375" stroke-miterlimit="8" fill="#FFFFFF"/><text font-family="Arial,Arial_MSFontService,sans-serif" font-weight="400" font-size="28" transform="matrix(1 0 0 1 1307.61 963)">CMake<tspan font-family="Microsoft YaHei,Microsoft YaHei_MSFontService,sans-serif" font-size="28" x="95.677" y="0">模板</tspan><tspan font-family="Microsoft YaHei,Microsoft YaHei_MSFontService,sans-serif" font-size="37" x="-191.925" y="-65">构建模板</tspan></text><rect x="793.5" y="1025.5" width="792" height="158" stroke="#FFC000" stroke-width="3.4375" stroke-miterlimit="8" fill="#FFFBF0"/><rect x="818.5" y="1097.5" width="354" height="68.0001" stroke="#FFC000" stroke-width="3.4375" stroke-miterlimit="8" fill="#FFFFFF"/><text font-family="Arial,Arial_MSFontService,sans-serif" font-weight="400" font-size="28" transform="matrix(1 0 0 1 914.068 1141)">C ABI <tspan font-family="Microsoft YaHei,Microsoft YaHei_MSFontService,sans-serif" font-size="28" x="79.0625" y="0">运行时</tspan></text><rect x="1206.5" y="1097.5" width="354" height="68.0001" stroke="#FFC000" stroke-width="3.4375" stroke-miterlimit="8" fill="#FFFFFF"/><text font-family="Arial,Arial_MSFontService,sans-serif" font-weight="400" font-size="28" transform="matrix(1 0 0 1 1311.91 1141)">C++ <tspan font-family="Microsoft YaHei,Microsoft YaHei_MSFontService,sans-serif" font-size="28" x="59.5834" y="0">运行时</tspan><tspan font-family="Microsoft YaHei,Microsoft YaHei_MSFontService,sans-serif" font-size="37" x="-177.888" y="-65">运行时</tspan><tspan font-family="Microsoft YaHei,Microsoft YaHei_MSFontService,sans-serif" font-size="37" x="-233.109" y="-304">项目构建组件</tspan></text></g></svg>