<svg width="2839" height="1716" xmlns="http://www.w3.org/2000/svg" xmlns:xlink="http://www.w3.org/1999/xlink" overflow="hidden"><defs><clipPath id="clip0"><rect x="326" y="510" width="2839" height="1716"/></clipPath></defs><g clip-path="url(#clip0)" transform="translate(-326 -510)"><rect x="770.5" y="527.5" width="2393" height="1421" stroke="#7F7F7F" stroke-width="3.4375" stroke-linejoin="round" stroke-miterlimit="10" fill="#FFFFFF"/><text font-family="DengXian,DengXian_MSFontService,sans-serif" font-weight="700" font-size="101" transform="matrix(1 0 0 1 1526.96 635)">Taihe<tspan font-size="101" x="274.427" y="0">工具内部组件</tspan></text><rect x="824.5" y="1470.5" width="2294" height="425" stroke="#7F7F7F" stroke-width="3.4375" stroke-linejoin="round" stroke-miterlimit="10" fill="#DEEBF7"/><text font-family="DengXian,DengXian_MSFontService,sans-serif" font-weight="700" font-size="83" transform="matrix(1 0 0 1 852.361 1611)">项目<tspan font-size="83" x="0" y="99">构建</tspan><tspan font-size="83" x="0" y="198">组件</tspan></text><rect x="2043.5" y="1507.5" width="1041" height="350" stroke="#7F7F7F" stroke-width="3.4375" stroke-linejoin="round" stroke-miterlimit="10" fill="#FFFFFF"/><text font-family="DengXian,DengXian_MSFontService,sans-serif" font-weight="400" font-size="73" transform="matrix(1 0 0 1 2453.45 1590)">运行时</text><rect x="1042.5" y="1508.5" width="954" height="349" stroke="#7F7F7F" stroke-width="3.4375" stroke-linejoin="round" stroke-miterlimit="10" fill="#FFFFFF"/><text font-family="DengXian,DengXian_MSFontService,sans-serif" font-weight="400" font-size="73" transform="matrix(1 0 0 1 1372.38 1590)">构建<tspan font-size="73" x="146.667" y="0">模板</tspan></text><rect x="1096.5" y="1643.5" width="398" height="167" stroke="#7F7F7F" stroke-width="3.4375" stroke-linejoin="round" stroke-miterlimit="10" fill="#FFFFFF"/><text font-family="DengXian,DengXian_MSFontService,sans-serif" font-weight="400" font-size="55" transform="matrix(1 0 0 1 1193.73 1745)">GN <tspan font-size="55" x="92.2396" y="0">模板</tspan></text><rect x="2092.5" y="1643.5" width="452" height="166" stroke="#7F7F7F" stroke-width="3.4375" stroke-linejoin="round" stroke-miterlimit="10" fill="#FFFFFF"/><text font-family="DengXian,DengXian_MSFontService,sans-serif" font-weight="400" font-size="55" transform="matrix(1 0 0 1 2163.81 1744)">C <tspan font-size="55" x="49.2708" y="0">ABI </tspan><tspan font-size="55" x="143.802" y="0">运行</tspan><tspan font-size="55" x="253.802" y="0">时</tspan></text><rect x="2591.5" y="1643.5" width="455" height="166" stroke="#7F7F7F" stroke-width="3.4375" stroke-linejoin="round" stroke-miterlimit="10" fill="#FFFFFF"/><text font-family="DengXian,DengXian_MSFontService,sans-serif" font-weight="400" font-size="55" transform="matrix(1 0 0 1 2674.4 1744)">C<tspan font-size="55" x="34.375" y="0">++ </tspan><tspan font-size="55" x="122.604" y="0">运行</tspan><tspan font-size="55" x="232.604" y="0">时</tspan></text><rect x="824.5" y="697.5" width="2294" height="732" stroke="#7F7F7F" stroke-width="3.4375" stroke-linejoin="round" stroke-miterlimit="10" fill="#DEEBF7"/><text font-family="DengXian,DengXian_MSFontService,sans-serif" font-weight="700" font-size="83" transform="matrix(1 0 0 1 852.361 991)">IDL<tspan font-size="83" x="0" y="99">编译</tspan><tspan font-size="83" x="0" y="198">组件</tspan></text><rect x="1540.5" y="1643.5" width="403" height="166" stroke="#7F7F7F" stroke-width="3.4375" stroke-linejoin="round" stroke-miterlimit="10" fill="#FFFFFF"/><text font-family="DengXian,DengXian_MSFontService,sans-serif" font-weight="400" font-size="55" transform="matrix(1 0 0 1 1597.16 1744)">CMake<tspan font-size="55" x="178.177" y="0">模板</tspan></text><rect x="1042.5" y="727.5" width="498" height="669" stroke="#7F7F7F" stroke-width="3.4375" stroke-linejoin="round" stroke-miterlimit="10" fill="#FFFFFF"/><text font-family="DengXian,DengXian_MSFontService,sans-serif" font-weight="400" font-size="73" transform="matrix(1 0 0 1 1107.74 809)">编译器前端</text><rect x="1114.5" y="869.5" width="353" height="221" stroke="#7F7F7F" stroke-width="3.4375" stroke-linejoin="round" stroke-miterlimit="10" fill="#FFFFFF"/><text font-family="DengXian,DengXian_MSFontService,sans-serif" font-weight="400" font-size="64" transform="matrix(1 0 0 1 1162.23 1001)">词法分析</text><rect x="1110.5" y="1122.5" width="358" height="221" stroke="#7F7F7F" stroke-width="3.4375" stroke-linejoin="round" stroke-miterlimit="10" fill="#FFFFFF"/><text font-family="DengXian,DengXian_MSFontService,sans-serif" font-weight="400" font-size="64" transform="matrix(1 0 0 1 1160.3 1254)">语法分析</text><rect x="2179.5" y="726.5" width="907" height="669" stroke="#7F7F7F" stroke-width="3.4375" stroke-linejoin="round" stroke-miterlimit="10" fill="#FFFFFF"/><text font-family="DengXian,DengXian_MSFontService,sans-serif" font-weight="400" font-size="73" transform="matrix(1 0 0 1 2449.25 809)">编译器<tspan font-size="73" x="220" y="0">后端</tspan></text><rect x="1613.5" y="726.5" width="497" height="669" stroke="#7F7F7F" stroke-width="3.4375" stroke-linejoin="round" stroke-miterlimit="10" fill="#FFFFFF"/><text font-family="DengXian,DengXian_MSFontService,sans-serif" font-weight="400" font-size="73" transform="matrix(1 0 0 1 1678.34 809)">编译器核心</text><rect x="1678.5" y="868.5" width="358" height="221" stroke="#7F7F7F" stroke-width="3.4375" stroke-linejoin="round" stroke-miterlimit="10" fill="#FFFFFF"/><text font-family="DengXian,DengXian_MSFontService,sans-serif" font-weight="400" font-size="64" transform="matrix(1 0 0 1 1728.61 1000)">中间表示</text><rect x="1681.5" y="1121.5" width="358" height="221" stroke="#7F7F7F" stroke-width="3.4375" stroke-linejoin="round" stroke-miterlimit="10" fill="#FFFFFF"/><text font-family="DengXian,DengXian_MSFontService,sans-serif" font-weight="400" font-size="64" transform="matrix(1 0 0 1 1731.83 1253)">语义<tspan font-size="64" x="128.333" y="0">分析</tspan></text><rect x="2247.5" y="860.5" width="773" height="101" stroke="#7F7F7F" stroke-width="3.4375" stroke-linejoin="round" stroke-miterlimit="10" fill="#FFFFFF"/><text font-family="DengXian,DengXian_MSFontService,sans-serif" font-weight="400" font-size="50" transform="matrix(1 0 0 1 2299.57 927)">C++ <tspan font-size="50" x="112.865" y="0">投影和</tspan><tspan font-size="50" x="264.115" y="0">模板代码生成后端</tspan></text><rect x="2247.5" y="982.5" width="773" height="101" stroke="#7F7F7F" stroke-width="3.4375" stroke-linejoin="round" stroke-miterlimit="10" fill="#FFFFFF"/><text font-family="DengXian,DengXian_MSFontService,sans-serif" font-weight="400" font-size="50" transform="matrix(1 0 0 1 2416.16 1046)">C ABI <tspan font-size="50" x="131.771" y="0">代码生成后端</tspan></text><rect x="2247.5" y="1104.5" width="369" height="238" stroke="#7F7F7F" stroke-width="3.4375" stroke-linejoin="round" stroke-miterlimit="10" fill="#FFFFFF"/><text font-family="DengXian,DengXian_MSFontService,sans-serif" font-weight="400" font-size="50" transform="matrix(1 0 0 1 2358.66 1155)">ANI <tspan font-size="50" x="95.104" y="0">→</tspan><tspan font-size="50" x="-35.7959" y="54">ArkTS</tspan><tspan font-size="50" x="89.0999" y="54">-</tspan><tspan font-size="50" x="114.308" y="54">Sta</tspan><tspan font-size="50" x="-78.4898" y="109">桥接代码生成</tspan><tspan font-size="50" x="22.3438" y="163">后端</tspan></text><rect x="2650.5" y="1104.5" width="370" height="238" stroke="#7F7F7F" stroke-width="3.4375" stroke-linejoin="round" stroke-miterlimit="10" fill="#FFFFFF"/><text font-family="DengXian,DengXian_MSFontService,sans-serif" font-weight="400" font-size="50" transform="matrix(1 0 0 1 2748.37 1155)">NAPI <tspan font-size="50" x="123.177" y="0">→</tspan><tspan font-size="50" x="-31.2354" y="54">ArkTS</tspan><tspan font-size="50" x="93.6604" y="54">-</tspan><tspan font-size="50" x="118.869" y="54">Dyn</tspan><tspan font-size="50" x="-64.4646" y="109">桥接代码生成</tspan><tspan font-size="50" x="36.3687" y="163">后端</tspan></text><rect x="327.5" y="527.5" width="397" height="1697" stroke="#7F7F7F" stroke-width="3.4375" stroke-linejoin="round" stroke-miterlimit="10" fill="#FFFFFF"/><text font-family="DengXian,DengXian_MSFontService,sans-serif" font-weight="700" font-size="83" transform="matrix(1 0 0 1 442.7 618)">用户<tspan font-size="83" x="-41.25" y="99">工作流</tspan></text><rect x="383.5" y="806.5" width="294" height="187" stroke="#7F7F7F" stroke-width="3.4375" stroke-linejoin="round" stroke-miterlimit="10" fill="#F2F2F2"/><text font-family="DengXian,DengXian_MSFontService,sans-serif" font-weight="400" font-size="55" transform="matrix(1 0 0 1 474.529 884)">编写<tspan font-size="55" x="-46.1083" y="66">IDL </tspan><tspan font-size="55" x="46.1313" y="66">文件</tspan></text><rect x="384.5" y="1094.5" width="294" height="187" stroke="#7F7F7F" stroke-width="3.4375" stroke-linejoin="round" stroke-miterlimit="10" fill="#F2F2F2"/><text font-family="DengXian,DengXian_MSFontService,sans-serif" font-weight="400" font-size="55" transform="matrix(1 0 0 1 429.897 1206)">IDL <tspan font-size="55" x="92.2396" y="0">编译</tspan></text><rect x="383.5" y="1676.5" width="294" height="187" stroke="#7F7F7F" stroke-width="3.4375" stroke-linejoin="round" stroke-miterlimit="10" fill="#F2F2F2"/><text font-family="DengXian,DengXian_MSFontService,sans-serif" font-weight="400" font-size="55" transform="matrix(1 0 0 1 419.54 1788)">项目构建</text><rect x="384.5" y="1388.5" width="294" height="187" stroke="#7F7F7F" stroke-width="3.4375" stroke-linejoin="round" stroke-miterlimit="10" fill="#F2F2F2"/><text font-family="DengXian,DengXian_MSFontService,sans-serif" font-weight="400" font-size="55" transform="matrix(1 0 0 1 475.812 1466)">实现<tspan font-size="55" x="-55" y="66">业务逻辑</tspan></text><rect x="383.5" y="1971.5" width="294" height="187" stroke="#7F7F7F" stroke-width="3.4375" stroke-linejoin="round" stroke-miterlimit="10" fill="#F2F2F2"/><text font-family="DengXian,DengXian_MSFontService,sans-serif" font-weight="400" font-size="55" transform="matrix(1 0 0 1 419.54 2050)">进行端到<tspan font-size="55" x="27.5" y="66">端测试</tspan></text><path d="M532.218 993.475 533.361 1072.04 529.924 1072.09 528.781 993.525ZM545.325 1067.28 531.976 1094.98 517.828 1067.68Z"/><path d="M1.71862-0.0215389 2.70321 78.5408-0.734016 78.5838-1.71862 0.0215389ZM14.6761 73.807 1.27178 101.477-12.8218 74.1516Z" transform="matrix(-1 0 0 1 531.772 1575.5)"/><path d="M532.219 1863.5 532.219 1948.72 528.781 1948.72 528.781 1863.5ZM544.25 1944.14 530.5 1971.64 516.75 1944.14Z"/><path d="M0.0169005-1.71867 50.1716-1.22547 50.1378 2.21186-0.0169005 1.71867ZM45.7068-13.3012 73.0702 0.718537 45.4364 14.1975Z" transform="matrix(1 0 0 -1 1540.5 1052.22)"/><path d="M2110.5 1049.78 2156.25 1049.78 2156.25 1053.22 2110.5 1053.22ZM2151.67 1037.75 2179.17 1051.5 2151.67 1065.25Z"/><path d="M1.71875-0.00330038 1.87937 83.6436-1.55813 83.6502-1.71875 0.00330038ZM13.9018 79.0372 0.204626 106.564-13.5982 79.09Z" transform="matrix(-1 0 0 1 531.705 1281.5)"/><rect x="770.5" y="1996.5" width="2393" height="228" stroke="#7F7F7F" stroke-width="3.4375" stroke-linejoin="round" stroke-miterlimit="10" fill="#FFFFFF"/><text font-family="DengXian,DengXian_MSFontService,sans-serif" font-weight="700" font-size="92" transform="matrix(1 0 0 1 798.523 2141)">外部依赖</text><rect x="1208.5" y="2040.5" width="918" height="141" stroke="#7F7F7F" stroke-width="3.4375" stroke-linejoin="round" stroke-miterlimit="10" fill="#E2F0D9"/><text font-family="DengXian,DengXian_MSFontService,sans-serif" font-weight="400" font-size="73" transform="matrix(1 0 0 1 1260.2 2134)">arkcompiler_runtime<tspan font-size="73" x="645.677" y="0">_</tspan><tspan font-size="73" x="676.042" y="0">core</tspan></text><rect x="2179.5" y="2040.5" width="939" height="141" stroke="#7F7F7F" stroke-width="3.4375" stroke-linejoin="round" stroke-miterlimit="10" fill="#E2F0D9"/><text font-family="DengXian,DengXian_MSFontService,sans-serif" font-weight="400" font-size="73" transform="matrix(1 0 0 1 2265.16 2134)">arkcompiler_ets_runtime</text></g></svg>