<svg width="2797" height="1446" xmlns="http://www.w3.org/2000/svg" xmlns:xlink="http://www.w3.org/1999/xlink" overflow="hidden"><defs><clipPath id="clip0"><rect x="116" y="614" width="2797" height="1446"/></clipPath></defs><g clip-path="url(#clip0)" transform="translate(-116 -614)"><rect x="519" y="638" width="2394" height="1422" fill="#002060" fill-opacity="0.101961"/><text font-family="DengXian,DengXian_MSFontService,sans-serif" font-weight="700" font-size="101" transform="matrix(1 0 0 1 1364.1 749)">Taihe<tspan font-family="SimHei,SimHei_MSFontService,sans-serif" font-size="101" x="297.917" y="0">工具</tspan><tspan font-family="SimHei,SimHei_MSFontService,sans-serif" font-size="101" x="500.729" y="0">组件</tspan></text><rect x="573" y="1581" width="2295" height="425" fill="#B2E7CA"/><text font-family="SimHei,SimHei_MSFontService,sans-serif" font-weight="700" font-size="83" transform="matrix(1 0 0 1 601.561 1780)">项目<tspan font-size="83" x="0" y="99">构建</tspan></text><rect x="1776" y="1620" width="1059" height="349" fill="#00B050" fill-opacity="0.301961"/><text font-family="SimHei,SimHei_MSFontService,sans-serif" font-weight="400" font-size="73" transform="matrix(1 0 0 1 2195.41 1710)">运行时</text><rect x="791" y="1620" width="932" height="349" fill="#00B050" fill-opacity="0.301961"/><text font-family="SimHei,SimHei_MSFontService,sans-serif" font-weight="400" font-size="73" transform="matrix(1 0 0 1 1110.06 1710)">构建<tspan font-size="73" x="146.667" y="0">模板</tspan></text><rect x="845" y="1755" width="400" height="167" fill="#00B050" fill-opacity="0.301961"/><text font-family="Calibri,Calibri_MSFontService,sans-serif" font-weight="400" font-size="55" transform="matrix(1 0 0 1 948.447 1857)">GN <tspan font-family="STXihei,STXihei_MSFontService,sans-serif" font-size="55" x="83.0729" y="0">模板</tspan></text><rect x="1840" y="1760" width="431" height="166" fill="#00B050" fill-opacity="0.301961"/><text font-family="Calibri,Calibri_MSFontService,sans-serif" font-weight="400" font-size="55" transform="matrix(1 0 0 1 1907.71 1862)">C ABI <tspan font-family="STXihei,STXihei_MSFontService,sans-serif" font-size="55" x="130.052" y="0">运行时</tspan></text><rect x="2323" y="1755" width="450" height="166" fill="#00B050" fill-opacity="0.301961"/><text font-family="Calibri,Calibri_MSFontService,sans-serif" font-weight="400" font-size="55" transform="matrix(1 0 0 1 2417.17 1857)">C++ <tspan font-family="STXihei,STXihei_MSFontService,sans-serif" font-size="55" x="96.823" y="0">运行时</tspan></text><rect x="573" y="809" width="2295" height="731" fill="#B2E7FA"/><text font-family="DengXian,DengXian_MSFontService,sans-serif" font-weight="700" font-size="83" transform="matrix(1 0 0 1 601.561 1152)">IDL<tspan font-family="SimHei,SimHei_MSFontService,sans-serif" font-size="83" x="0" y="107">编译</tspan></text><rect x="1298" y="1758" width="362" height="166" fill="#00B050" fill-opacity="0.301961"/><text font-family="Calibri,Calibri_MSFontService,sans-serif" font-weight="400" font-size="55" transform="matrix(1 0 0 1 1339.96 1860)">CMake<tspan font-family="STXihei,STXihei_MSFontService,sans-serif" font-size="55" x="167.865" y="0">工具</tspan></text><rect x="792" y="839" width="497" height="669" fill="#00B0F0" fill-opacity="0.301961"/><text font-family="SimHei,SimHei_MSFontService,sans-serif" font-weight="400" font-size="73" transform="matrix(1 0 0 1 966.943 929)">前端</text><rect x="863" y="990" width="353" height="222" fill="#00B0F0" fill-opacity="0.301961"/><text font-family="STXihei,STXihei_MSFontService,sans-serif" font-weight="400" font-size="64" transform="matrix(1 0 0 1 911.429 1124)">词法分析</text><rect x="859" y="1243" width="358" height="222" fill="#00B0F0" fill-opacity="0.301961"/><text font-family="STXihei,STXihei_MSFontService,sans-serif" font-weight="400" font-size="64" transform="matrix(1 0 0 1 909.497 1377)">语法分析</text><rect x="1929" y="838" width="907" height="669" fill="#00B0F0" fill-opacity="0.301961"/><text font-family="SimHei,SimHei_MSFontService,sans-serif" font-weight="400" font-size="73" transform="matrix(1 0 0 1 2125.82 929)">多后端代码生成</text><rect x="1362" y="838" width="498" height="669" fill="#00B0F0" fill-opacity="0.301961"/><text font-family="SimHei,SimHei_MSFontService,sans-serif" font-weight="400" font-size="73" transform="matrix(1 0 0 1 1427.54 929)">编译器核心</text><rect x="1427" y="990" width="358" height="221" fill="#00B0F0" fill-opacity="0.301961"/><text font-family="STXihei,STXihei_MSFontService,sans-serif" font-weight="400" font-size="64" transform="matrix(1 0 0 1 1477.81 1123)">中间表示</text><rect x="1430" y="1243" width="358" height="221" fill="#00B0F0" fill-opacity="0.301961"/><text font-family="STXihei,STXihei_MSFontService,sans-serif" font-weight="400" font-size="64" transform="matrix(1 0 0 1 1481.03 1376)">语义<tspan font-size="64" x="128.333" y="0">分析</tspan></text><rect x="1996" y="981" width="773" height="102" fill="#00B0F0" fill-opacity="0.301961"/><text font-family="Calibri,Calibri_MSFontService,sans-serif" font-weight="400" font-size="50" transform="matrix(1 0 0 1 2161.63 1050)">C++ <tspan font-family="STXihei,STXihei_MSFontService,sans-serif" font-size="50" x="88.802" y="0">用户侧实现模板</tspan></text><rect x="1996" y="1110" width="773" height="102" fill="#00B0F0" fill-opacity="0.301961"/><text font-family="Calibri,Calibri_MSFontService,sans-serif" font-weight="400" font-size="50" transform="matrix(1 0 0 1 2272.49 1175)">C ABI <tspan font-family="STXihei,STXihei_MSFontService,sans-serif" font-size="50" x="119.167" y="0">代码</tspan></text><rect x="1996" y="1237" width="373" height="102" fill="#00B0F0" fill-opacity="0.301961"/><text font-family="Calibri,Calibri_MSFontService,sans-serif" font-weight="400" font-size="50" transform="matrix(1 0 0 1 2038.38 1302)">ANI <tspan font-family="STXihei,STXihei_MSFontService,sans-serif" font-size="50" x="85.9374" y="0">桥接代码</tspan></text><rect x="2396" y="1237" width="373" height="102" fill="#00B0F0" fill-opacity="0.301961"/><text font-family="Calibri,Calibri_MSFontService,sans-serif" font-weight="400" font-size="50" transform="matrix(1 0 0 1 2426.1 1302)">NAPI<tspan font-family="STXihei,STXihei_MSFontService,sans-serif" font-size="50" x="111.719" y="0">桥接代码</tspan></text><rect x="1996" y="1363" width="773" height="102" fill="#00B0F0" fill-opacity="0.301961"/><text font-family="Calibri,Calibri_MSFontService,sans-serif" font-weight="400" font-size="50" transform="matrix(1 0 0 1 2217.2 1428)">ArkTS<tspan font-family="STXihei,STXihei_MSFontService,sans-serif" font-size="50" x="128.906" y="0">投影代码</tspan></text><rect x="116" y="638" width="357" height="1422" fill="#002060" fill-opacity="0.301961"/><text font-family="SimHei,SimHei_MSFontService,sans-serif" font-weight="400" font-size="73" transform="matrix(1 0 0 1 220.902 729)">用户<tspan font-size="73" x="-36.6667" y="88">工作</tspan><tspan font-size="73" x="110" y="88">流</tspan></text><rect x="156" y="891" width="278" height="168" fill="#002060" fill-opacity="0.301961"/><text fill="#FFFFFF" font-family="STXihei,STXihei_MSFontService,sans-serif" font-weight="400" font-size="55" transform="matrix(1 0 0 1 240.271 961)">编写<tspan font-family="Calibri,Calibri_MSFontService,sans-serif" font-size="55" x="-41.5479" y="66">IDL </tspan><tspan font-size="55" x="41.525" y="66">文件</tspan></text><rect x="158" y="1117" width="278" height="168" fill="#7CD6F6"/><text font-family="Calibri,Calibri_MSFontService,sans-serif" font-weight="400" font-size="55" transform="matrix(1 0 0 1 200.199 1220)">IDL<tspan font-family="STXihei,STXihei_MSFontService,sans-serif" font-size="55" x="83.0729" y="0">编译</tspan></text><rect x="156" y="1573" width="278" height="169" fill="#7CD6A5"/><text font-family="STXihei,STXihei_MSFontService,sans-serif" font-weight="400" font-size="55" transform="matrix(1 0 0 1 185.259 1677)">项目构建</text><rect x="157" y="1348" width="279" height="168" fill="#002060" fill-opacity="0.301961"/><text fill="#FFFFFF" font-family="STXihei,STXihei_MSFontService,sans-serif" font-weight="400" font-size="55" transform="matrix(1 0 0 1 241.531 1418)">实现<tspan font-size="55" x="-55" y="66">业务</tspan><tspan font-size="55" x="55" y="66">逻辑</tspan></text><rect x="156" y="1806" width="278" height="168" fill="#002060" fill-opacity="0.301961"/><text fill="#FFFFFF" font-family="STXihei,STXihei_MSFontService,sans-serif" font-weight="400" font-size="55" transform="matrix(1 0 0 1 185.259 1877)">进行端到<tspan font-size="55" x="27.5" y="65">端测试</tspan></text><path d="M297.218 1059.46 298.107 1094.06 294.67 1094.15 293.782 1059.54ZM310.016 1089.17 296.977 1117.02 282.525 1089.88Z"/><path d="M1.71833-0.0379944 2.48352 34.5685-0.953137 34.6445-1.71833 0.0379944ZM14.4105 29.7204 1.27178 57.5176-13.0828 30.3283Z" transform="matrix(-1 0 0 1 296.772 1516.5)"/><path d="M297.219 1742.5 297.219 1783.76 293.782 1783.76 293.781 1742.5ZM309.25 1779.18 295.5 1806.68 281.75 1779.18Z"/><path d="M0.0169005-1.71867 50.1716-1.22547 50.1378 2.21186-0.0169005 1.71867ZM45.7068-13.3012 73.0702 0.718537 45.4364 14.1975Z" transform="matrix(1 0 0 -1 1289.5 1174.22)"/><path d="M1860.5 1171.78 1906.95 1171.78 1906.95 1175.22 1860.5 1175.22ZM1902.37 1159.75 1929.87 1173.5 1902.37 1187.25Z"/><path d="M1.71874-0.00561784 1.84846 39.6818-1.58902 39.6931-1.71874 0.00561784ZM13.8647 35.0592 0.204626 62.604-13.6352 35.1491Z" transform="matrix(-1 0 0 1 297.704 1285.5)"/></g></svg>